<svg width="15" height="14" viewBox="0 0 15 14" fill="none" xmlns="http://www.w3.org/2000/svg">
<path d="M4.64197 12.4545H10.3583C11.8638 12.4545 12.4638 11.5327 12.5347 10.409L12.8183 5.90359C12.8947 4.72541 11.9565 3.72723 10.7729 3.72723C10.4401 3.72723 10.1347 3.53632 9.98197 3.24177L9.58924 2.45086C9.33833 1.9545 8.68378 1.54541 8.12742 1.54541H6.87833C6.31651 1.54541 5.66197 1.9545 5.41106 2.45086L5.01833 3.24177C4.8656 3.53632 4.56015 3.72723 4.22742 3.72723C3.04378 3.72723 2.1056 4.72541 2.18197 5.90359L2.4656 10.409C2.53106 11.5327 3.13651 12.4545 4.64197 12.4545Z" stroke="white" stroke-width="0.818182" stroke-linecap="round" stroke-linejoin="round"/>
<path d="M6.68188 4.81836H8.31825" stroke="white" stroke-width="0.818182" stroke-linecap="round" stroke-linejoin="round"/>
<path d="M7.50002 10.273C8.47639 10.273 9.27275 9.47663 9.27275 8.50027C9.27275 7.5239 8.47639 6.72754 7.50002 6.72754C6.52366 6.72754 5.72729 7.5239 5.72729 8.50027C5.72729 9.47663 6.52366 10.273 7.50002 10.273Z" stroke="white" stroke-width="0.818182" stroke-linecap="round" stroke-linejoin="round"/>
</svg>
